<?xml version="1.0" encoding="iso-8859-1"?>
<!-- Generator: Adobe Illustrator 17.1.0, SVG Export Plug-In . SVG Version: 6.00 Build 0)  -->
<!DOCTYPE svg PUBLIC "-//W3C//DTD SVG 1.1//EN" "http://www.w3.org/Graphics/SVG/1.1/DTD/svg11.dtd">
<svg version="1.1" id="Capa_1" xmlns="http://www.w3.org/2000/svg" xmlns:xlink="http://www.w3.org/1999/xlink" x="0px" y="0px"
	 viewBox="0 0 494.268 494.268" style="enable-background:new 0 0 494.268 494.268;" xml:space="preserve">
<path d="M489.83,279.09c-0.112-0.371-0.257-0.727-0.423-1.071c-9.611-23.148-32.447-39.472-59.031-39.472H315.717v-39.482
	c0-2.098-0.878-4.099-2.422-5.52c-1.544-1.42-3.611-2.135-5.701-1.954l-48.262,4.024v-71.731c0-4.143-3.357-7.5-7.5-7.5
	s-7.5,3.357-7.5,7.5v72.982l-22.589,1.884v-56.07c0-4.143-3.357-7.5-7.5-7.5s-7.5,3.357-7.5,7.5V200l-11.918,0.994
	c-3.888,0.323-6.877,3.573-6.877,7.474v30.079h-12.512c-6.352,0-12.578,1.156-18.508,3.438l-57.352,22.061v-17.987
	c0-3.228-2.065-6.094-5.127-7.114l-28.192-9.403c-2.29-0.766-4.804-0.38-6.758,1.029c-1.956,1.41-3.115,3.674-3.115,6.085v44.004
	l-13.987,5.38c-2.896,1.114-4.808,3.896-4.808,7v1.903h-8.934v-30.096c0-4.143-3.357-7.5-7.5-7.5s-7.5,3.357-7.5,7.5v30.096H7.5
	c-4.143,0-7.5,3.357-7.5,7.5s3.357,7.5,7.5,7.5h6.156v30.091c0,4.143,3.357,7.5,7.5,7.5s7.5-3.357,7.5-7.5v-30.091h8.934v1.893
	c0,3.104,1.911,5.886,4.808,7l13.987,5.38v46.167c0,2.411,1.159,4.675,3.115,6.085c1.293,0.932,2.831,1.415,4.386,1.415
	c0.796,0,1.597-0.127,2.372-0.386l28.192-9.403c3.062-1.021,5.127-3.887,5.127-7.114v-20.149l57.353,22.062
	c5.93,2.28,12.156,3.437,18.507,3.437h254.939c35.229,0,63.892-28.661,63.892-63.891C494.268,294.199,492.683,286.328,489.83,279.09
	z M71.385,247.063l13.192,4.399v18.352l-13.192,5.075V247.063z M84.577,355.576l-13.192,4.399v-29.989l13.192,5.075V355.576z
	 M430.376,351.329H175.437c-4.503,0-8.918-0.82-13.123-2.437L52.59,306.686v-8.495l109.724-42.206
	c4.205-1.617,8.62-2.438,13.123-2.438h95.19c4.143,0,7.5-3.357,7.5-7.5s-3.357-7.5-7.5-7.5h-67.679v-23.179l97.769-8.152v38.831
	c0,4.143,3.357,7.5,7.5,7.5h122.159c16.252,0,30.668,7.978,39.563,20.216H186.051c-4.143,0-7.5,3.357-7.5,7.5s3.357,7.5,7.5,7.5
	h291.256c1.268,4.343,1.961,8.929,1.961,13.676C479.268,329.396,457.335,351.329,430.376,351.329z"/>
<g>
</g>
</svg>
